PathFileType	4	(X/Y/Z)	D:\TRACE\spotREDO_2-26-24\spot_Both_Motion_3_7-v60.trc
DataRate	CameraRate	NumFrames	NumMarkers	Units	OrigDataRate	OrigDataStartFrame	OrigNumFrames
100.00	100.00	      24	9	mm	100.00	5251	      7000
Frame#	Time	front left toe			Front right toe			aft left toe			aft right toe			Arm			FL body			FR body			AL Body			AR Body			
		X1	Y1	Z1	X2	Y2	Z2	X3	Y3	Z3	X4	Y4	Z4	X5	Y5	Z5	X6	Y6	Z6	X7	Y7	Z7	X8	Y8	Z8	X9	Y9	Z9	

5251	52.500	-117.94694	34.48935	-428.98172	292.68481	12.69037	-513.98956	21.10794	19.16349	133.29958	362.84183	20.92742	48.04756	62.84512	688.48553	-769.07507	18.20089	563.71796	-527.87512	171.77466	567.19348	-555.44427	166.70279	562.78839	343.80753	312.99469	555.10291	320.13208	
5252	52.510	-115.22268	45.68255	-426.29031	292.62845	12.49631	-514.18817	20.65995	18.97287	133.27074	362.50903	21.30185	47.89104	63.06929	688.50275	-769.03180	20.37681	563.22803	-527.26007	174.13708	567.24670	-554.86438	168.60077	562.37250	344.12903	313.97723	555.96887	321.49533	
5253	52.520	-118.35283	58.49020	-426.07587	292.78210	12.58455	-514.03143	20.38928	19.23306	133.64272	362.53101	21.40157	48.17367	63.56798	688.38470	-769.46613	22.27592	562.64081	-526.95398	175.66841	567.19495	-554.28247	170.08769	562.45367	344.73370	315.92191	556.10748	321.48672	
5254	52.530	-120.94360	71.85986	-429.12625	292.72766	12.46118	-514.04547	20.84908	19.29191	133.62213	362.74243	21.21809	48.12857	63.41100	688.64716	-769.33716	23.61126	562.28973	-526.43347	177.18124	567.49957	-553.56561	170.68173	562.25055	345.36029	317.04123	556.72278	322.77505	
5255	52.540	-122.84174	83.59792	-431.94846	292.63382	12.65083	-514.02350	20.95061	19.59711	133.50972	362.99286	20.95054	48.18573	63.13833	688.73859	-768.83057	24.87267	562.36444	-525.72717	178.35837	567.57843	-553.00073	172.18951	562.13275	346.15063	317.63397	556.74750	323.00732	
5256	52.550	-121.08211	95.08387	-434.40469	292.44562	12.84985	-513.88464	21.10450	19.83978	133.57874	362.94693	20.77070	48.18281	62.83492	688.45856	-768.74078	25.42334	562.63953	-525.06818	179.13033	567.82953	-552.32147	173.19200	562.74963	347.18008	319.21271	556.32941	323.84677	
5257	52.560	-120.51820	102.41779	-433.10324	292.12091	12.69464	-514.06567	21.26644	19.83293	133.74425	363.19669	20.67880	48.31009	62.86712	688.32751	-768.63507	25.85998	562.86707	-524.34088	179.56100	568.17188	-551.71362	174.62917	561.97235	347.50873	320.55756	556.05695	324.46811	
5258	52.570	-118.38605	107.21662	-431.86005	291.26279	12.72371	-514.38019	21.41768	20.08499	133.71994	363.32535	20.60337	48.37979	63.33435	688.19574	-768.22345	26.19843	563.09766	-523.57947	179.99017	568.43774	-551.21118	175.54926	561.79279	348.02618	320.80884	555.73181	324.75638	
5259	52.580	-117.70722	109.82660	-430.11176	291.69650	13.09132	-513.99750	21.44919	20.08685	133.75485	363.20706	20.56467	48.28543	64.44186	687.83301	-768.27661	26.44422	563.26740	-522.96234	180.07031	568.54462	-550.72504	176.10310	561.22125	348.31522	321.79849	555.82849	325.24200	
5260	52.590	-118.28374	109.97799	-429.57315	291.80545	13.10769	-513.98016	21.53453	20.10656	133.84250	363.28125	20.56028	48.26079	64.97961	687.65393	-768.49377	26.51618	563.22778	-522.50842	180.27138	568.61786	-549.96130	176.21863	562.05945	349.46402	322.45428	556.01361	325.84317	
5261	52.600	-117.64278	109.97988	-429.91843	291.71512	13.07092	-513.96741	21.53169	20.03887	133.89771	363.24438	20.61431	48.21003	65.71651	687.43866	-768.67249	26.67527	563.06042	-521.75909	180.20000	568.54266	-549.52716	176.11906	561.81854	349.54065	322.65826	555.72699	325.57068	
5262	52.610	-117.96093	109.93334	-430.09204	291.62671	12.93165	-514.07056	21.45820	19.95961	133.92924	364.00034	21.19260	48.62410	66.54551	687.22308	-768.98462	26.82157	562.86328	-521.34338	180.34323	568.30719	-549.15704	176.16975	561.92419	350.08395	322.65695	555.94080	326.23642	
5263	52.620	-117.39645	109.57425	-429.73312	291.43155	12.85320	-514.04382	21.25492	19.59871	133.96556	363.96936	21.29106	48.67679	66.88731	687.17053	-769.09979	26.78152	562.54944	-520.90759	180.43968	568.01807	-548.62604	175.86409	562.10889	350.45761	322.49414	556.15356	326.63330	
5264	52.630	-114.37590	108.26585	-428.91269	291.04346	12.74304	-514.24213	21.05617	19.19200	134.13199	363.64587	21.27267	48.59563	67.37149	687.34479	-769.23474	26.54099	562.28308	-520.62067	179.94041	567.74182	-548.57574	175.38625	562.39032	350.83511	322.29932	556.26282	326.89142	
5265	52.640	-110.78943	109.91535	-428.34872	290.94220	12.89134	-514.34833	21.01235	19.10912	134.11858	363.44098	21.26515	48.52788	68.13542	687.81732	-769.31671	25.94352	562.20612	-520.43652	179.25008	567.54645	-548.31622	175.23392	562.50311	351.02975	321.27118	556.47125	327.59073	
5266	52.650	-106.52019	112.94077	-428.24985	292.14786	13.42737	-513.67188	20.97830	19.09637	134.09036	363.56262	21.33281	48.52739	70.45198	689.09369	-769.50385	25.19510	562.12335	-520.33124	178.76666	567.60663	-548.52637	174.54753	562.55725	351.12238	320.84430	556.58521	328.06635	
5267	52.660	-102.55984	115.03784	-428.93744	291.94949	13.44516	-513.81299	21.01893	19.08983	134.09744	363.29559	21.42098	48.42620	72.38374	690.34271	-769.87451	24.64461	562.15802	-520.31012	178.02238	567.56586	-548.03546	173.91644	562.50623	351.29340	320.17392	556.70709	328.11188	
5268	52.670	-99.75900	116.24259	-430.25476	291.85812	13.44325	-513.87170	20.91923	19.08785	134.01804	363.31335	21.58722	48.48255	74.15670	691.47900	-770.28973	23.89924	562.10498	-520.28571	177.53020	567.70941	-547.90558	173.46629	562.75183	351.75897	319.24109	556.69940	328.22751	
5269	52.680	-98.14693	118.30232	-430.88922	292.06384	13.47831	-513.75836	20.86791	19.03211	133.96622	363.39154	21.75893	48.63317	75.33025	692.10999	-770.58191	23.53324	561.89417	-520.24957	177.33553	567.83807	-547.77991	172.05159	562.52850	351.83719	318.14423	556.65088	328.33569	
5270	52.690	-97.85028	118.90295	-431.28235	292.01401	13.23699	-513.74506	20.73528	18.96550	133.89543	362.90628	21.55745	48.43414	75.69013	692.61859	-770.75372	23.27674	561.85675	-520.39404	176.98267	567.98041	-547.60248	170.85626	562.39050	351.88977	316.87787	556.69763	328.12769	
5271	52.700	-98.56303	116.72237	-431.00079	291.99362	12.85284	-513.82086	20.64168	18.98311	133.82314	362.79770	21.70025	48.47928	75.31995	692.64960	-770.87665	23.17760	561.93610	-520.43329	176.81441	568.04822	-547.48035	169.03340	562.19128	351.76321	315.58582	556.77380	329.13031	
5272	52.710	-99.67950	112.92056	-430.91537	292.23154	12.65083	-513.84845	20.42671	19.00443	133.78369	362.62604	21.77794	48.52130	73.91256	692.71198	-770.75836	22.88470	562.15503	-520.40131	176.46840	568.16400	-547.22961	167.72522	562.14429	351.93878	314.08490	556.87891	329.48413	
5273	52.720	-100.52056	106.31168	-430.98801	292.31732	12.62202	-513.83014	20.22145	19.00593	133.72488	362.47305	21.95207	48.48182	72.03234	692.72711	-770.88556	22.31660	562.22089	-520.24585	175.98969	568.12506	-546.99878	166.57619	562.21283	352.12335	312.85455	556.72571	329.78055	
5274	52.730	-101.75230	97.82327	-431.11243	292.16550	12.59418	-513.91998	20.15048	19.01591	133.74754	362.39462	21.89462	48.47520	70.54092	692.54700	-770.79736	21.54706	562.38708	-520.05774	175.15654	568.16992	-546.91681	165.20030	562.32410	352.34058	311.80893	556.53815	329.36014	
